<svg width="300" height="300" viewBox="0 0 300 300" fill="none" xmlns="http://www.w3.org/2000/svg">
<mask id="path-1-inside-1_0_1" fill="white">
<path fill-rule="evenodd" clip-rule="evenodd" d="M0 300V71.5835L80.3701 0H300V227.029L218.072 300H0Z"/>
</mask>
<path fill-rule="evenodd" clip-rule="evenodd" d="M0 300V71.5835L80.3701 0H300V227.029L218.072 300H0Z" fill="url(#paint0_linear_0_1)"/>
<path d="M0 71.5835L-3.99065 67.103L-6 68.8927V71.5835H0ZM0 300H-6V306H0V300ZM80.3701 0V-6H78.0855L76.3795 -4.48048L80.3701 0ZM300 0H306V-6H300V0ZM300 227.029L303.991 231.51L306 229.72V227.029H300ZM218.072 300V306H220.357L222.063 304.48L218.072 300ZM-6 71.5835V300H6V71.5835H-6ZM76.3795 -4.48048L-3.99065 67.103L3.99065 76.064L84.3608 4.48048L76.3795 -4.48048ZM300 -6H80.3701V6H300V-6ZM306 227.029V0H294V227.029H306ZM222.063 304.48L303.991 231.51L296.009 222.549L214.082 295.52L222.063 304.48ZM0 306H218.072V294H0V306Z" fill="#002CCA" mask="url(#path-1-inside-1_0_1)"/>
<path fill-rule="evenodd" clip-rule="evenodd" d="M146.566 196.784L128.686 203.657L115.561 207.829L122.592 207.641C124.936 207.548 127.28 207.501 129.624 207.501H146.566V196.784ZM146.566 215.469H107.639V203.704L153.436 186.126C155.28 185.501 157.264 184.907 159.389 184.344C161.483 183.751 162.999 183.36 163.936 183.173C163.092 182.985 161.936 182.673 160.467 182.235C158.967 181.798 157.53 181.36 156.155 180.923C154.78 180.485 153.874 180.173 153.436 179.985L107.639 162.735V151.251H145.566L145.566 109.686H157.332L173.286 151.251H173.686V152.293L174.91 155.483C175.535 157.327 176.129 159.311 176.691 161.436C177.285 163.53 177.676 165.045 177.863 165.983C178.051 165.139 178.363 163.983 178.801 162.514C179.238 161.014 179.676 159.577 180.113 158.202C180.551 156.827 180.863 155.92 181.051 155.483L198.301 109.686L209.785 109.686L209.785 151.251H250.267V162.735L204.47 179.985C204.033 180.173 203.126 180.485 201.751 180.923C200.376 181.36 198.939 181.798 197.439 182.235C195.97 182.673 194.814 182.985 193.97 183.173C194.908 183.36 196.423 183.751 198.517 184.344C200.642 184.907 202.626 185.501 204.47 186.126L250.267 203.704V215.469H210.785L210.785 255.314H199.301L184.293 215.469H184.22V215.277L182.051 209.517C181.863 209.08 181.551 208.173 181.113 206.798C180.676 205.423 180.238 203.986 179.801 202.486C179.363 201.017 179.051 199.861 178.863 199.017C178.676 199.955 178.285 201.47 177.691 203.564C177.129 205.689 176.535 207.673 175.91 209.517L173.686 215.312V215.469H173.626L158.332 255.314H146.566L146.566 215.469ZM165.604 215.469L158.379 234.267L154.207 247.392L154.395 240.361C154.488 238.017 154.535 235.673 154.535 233.33V215.469H165.604ZM168.667 207.501H154.535V193.721L173.686 186.36V180.079L153.535 172.438V159.313H168.365L174.676 175.733H180.957L187.183 159.313H201.723V173.442L184.22 180.079V186.36L202.723 193.472V207.501H188.871L181.957 189.267H175.676L168.667 207.501ZM191.892 215.469L199.02 234.267C199.645 235.83 200.285 237.705 200.941 239.892C201.629 242.111 202.363 244.611 203.145 247.392C203.02 245.142 202.91 242.845 202.816 240.501C202.754 238.158 202.723 235.767 202.723 233.33V215.469H191.892ZM210.785 207.501H228.283C230.626 207.501 232.97 207.548 235.314 207.641L242.345 207.829L229.22 203.657L210.785 196.571V207.501ZM209.785 170.385L229.22 163.016C230.783 162.391 232.658 161.751 234.845 161.094C237.064 160.407 239.564 159.673 242.345 158.891C240.095 159.016 237.798 159.126 235.455 159.219C233.111 159.282 230.72 159.313 228.283 159.313H209.785V170.385ZM201.723 151.251V131.67C201.723 129.233 201.754 126.842 201.816 124.499C201.91 122.155 202.02 119.858 202.145 117.608C201.363 120.389 200.629 122.889 199.941 125.108C199.285 127.295 198.645 129.17 198.02 130.733L190.24 151.251H201.723ZM165.266 151.251L157.379 130.733L153.207 117.608L153.395 124.639C153.488 126.983 153.535 129.327 153.535 131.67V151.251H165.266ZM145.566 159.313H129.624C127.186 159.313 124.795 159.282 122.452 159.219C120.108 159.126 117.811 159.016 115.561 158.891C118.342 159.673 120.842 160.407 123.061 161.094C125.249 161.751 127.124 162.391 128.686 163.016L145.566 169.417V159.313Z" fill="#002CCA"/>
<defs>
<linearGradient id="paint0_linear_0_1" x1="150" y1="294" x2="150" y2="5.00001" gradientUnits="userSpaceOnUse">
<stop stop-color="#CC9F00"/>
<stop offset="0.963542" stop-color="#FFE500" stop-opacity="0.79"/>
</linearGradient>
</defs>
</svg>
